<svg xmlns="http://www.w3.org/2000/svg" width="17" height="16" viewBox="0 0 17 16" fill="none">
  <g clip-path="url(#clip0_153_1273)">
    <path d="M11.725 3C12.089 2.99969 12.4495 3.07207 12.7852 3.21287C13.1209 3.35368 13.4251 3.56009 13.68 3.82C14.2052 4.35319 14.4996 5.07158 14.4996 5.82C14.4996 6.56842 14.2052 7.28681 13.68 7.82L8.50001 13.065L3.32001 7.82C2.7948 7.28681 2.5004 6.56842 2.5004 5.82C2.5004 5.07158 2.7948 4.35319 3.32001 3.82C3.57506 3.56028 3.8793 3.35398 4.21497 3.21315C4.55063 3.07232 4.911 2.99979 5.27501 2.99979C5.63902 2.99979 5.99939 3.07232 6.33505 3.21315C6.67072 3.35398 6.97496 3.56028 7.23001 3.82L8.50001 5.12L9.76501 3.83C10.0191 3.56699 10.3237 3.35793 10.6605 3.21532C10.9972 3.07271 11.3593 2.99948 11.725 3ZM11.725 2C11.2278 1.99958 10.7356 2.09843 10.2771 2.29075C9.81858 2.48308 9.40311 2.765 9.05501 3.12L8.50001 3.68L7.94501 3.12C7.59648 2.76564 7.18091 2.48421 6.7225 2.2921C6.2641 2.09999 5.77204 2.00105 5.27501 2.00105C4.77798 2.00105 4.28592 2.09999 3.82752 2.2921C3.36911 2.48421 2.95353 2.76564 2.60501 3.12C1.89595 3.84181 1.49866 4.81318 1.49866 5.825C1.49866 6.83682 1.89595 7.80819 2.60501 8.53L8.50001 14.5L14.395 8.53C15.1041 7.80819 15.5014 6.83682 15.5014 5.825C15.5014 4.81318 15.1041 3.84181 14.395 3.12C14.0466 2.76545 13.631 2.48382 13.1726 2.29153C12.7142 2.09924 12.2221 2.00014 11.725 2Z" fill="white"/>
  </g>
  <defs>
    <clipPath id="clip0_153_1273">
      <rect width="16" height="16" fill="white" transform="translate(0.5)"/>
    </clipPath>
  </defs>
</svg>