<svg width="28" height="28" viewBox="0 0 28 28" fill="none" xmlns="http://www.w3.org/2000/svg">
<g clip-path="url(#clip0_3_80)">
<path d="M25.1187 16.8814L22.75 14.5127V11.375C22.7472 9.20671 21.9405 7.11647 20.4859 5.50847C19.0313 3.90047 17.0322 2.88893 14.875 2.66945V0.875H13.125V2.66945C10.9678 2.88893 8.96868 3.90047 7.51409 5.50847C6.0595 7.11647 5.25281 9.20671 5.25 11.375V14.5127L2.88129 16.8814C2.71721 17.0454 2.62503 17.268 2.625 17.5V20.125C2.625 20.3571 2.71719 20.5796 2.88128 20.7437C3.04538 20.9078 3.26794 21 3.5 21H9.625V21.6797C9.60603 22.7897 9.99732 23.8677 10.7239 24.7071C11.4505 25.5465 12.4612 26.0882 13.5625 26.2286C14.1708 26.2889 14.7849 26.2213 15.3655 26.0301C15.946 25.8388 16.4801 25.5282 16.9334 25.1181C17.3867 24.708 17.7491 24.2077 17.9974 23.6491C18.2457 23.0906 18.3743 22.4862 18.375 21.875V21H24.5C24.7321 21 24.9546 20.9078 25.1187 20.7437C25.2828 20.5796 25.375 20.3571 25.375 20.125V17.5C25.375 17.268 25.2828 17.0454 25.1187 16.8814ZM16.625 21.875C16.625 22.5712 16.3484 23.2389 15.8562 23.7312C15.3639 24.2234 14.6962 24.5 14 24.5C13.3038 24.5 12.6361 24.2234 12.1438 23.7312C11.6516 23.2389 11.375 22.5712 11.375 21.875V21H16.625V21.875ZM23.625 19.25H4.375V17.8623L6.74362 15.4936C6.90773 15.3296 6.99995 15.107 7 14.875V11.375C7 9.51848 7.7375 7.73801 9.05025 6.42525C10.363 5.1125 12.1435 4.375 14 4.375C15.8565 4.375 17.637 5.1125 18.9497 6.42525C20.2625 7.73801 21 9.51848 21 11.375V14.875C21 15.107 21.0923 15.3296 21.2564 15.4936L23.625 17.8623V19.25Z" fill="black"/>
</g>
<defs>
<clipPath id="clip0_3_80">
<rect width="28" height="28" fill="white"/>
</clipPath>
</defs>
</svg>
