<svg width="21" height="20" viewBox="0 0 21 20" fill="none" xmlns="http://www.w3.org/2000/svg">
<g clip-path="url(#clip0_34_1275)">
<g clip-path="url(#clip1_34_1275)">
<path d="M14.5313 3.75C14.9863 3.74962 15.4369 3.84008 15.8565 4.01609C16.2761 4.1921 16.6564 4.45011 16.975 4.775C17.6315 5.44149 17.9995 6.33947 17.9995 7.275C17.9995 8.21053 17.6315 9.10851 16.975 9.775L10.5 16.3313L4.02501 9.775C3.3685 9.10851 3.0005 8.21053 3.0005 7.275C3.0005 6.33947 3.3685 5.44149 4.02501 4.775C4.34382 4.45035 4.72412 4.19247 5.14371 4.01643C5.56329 3.8404 6.01375 3.74973 6.46876 3.74973C6.92378 3.74973 7.37423 3.8404 7.79382 4.01643C8.2134 4.19247 8.5937 4.45035 8.91251 4.775L10.5 6.4L12.0813 4.7875C12.3989 4.45874 12.7796 4.19741 13.2006 4.01915C13.6215 3.84089 14.0741 3.74935 14.5313 3.75ZM14.5313 2.5C13.9098 2.49947 13.2944 2.62304 12.7213 2.86344C12.1482 3.10384 11.6289 3.45625 11.1938 3.9L10.5 4.6L9.80626 3.9C9.3706 3.45705 8.85113 3.10526 8.27813 2.86512C7.70512 2.62498 7.09005 2.50131 6.46876 2.50131C5.84747 2.50131 5.2324 2.62498 4.65939 2.86512C4.08639 3.10526 3.56692 3.45705 3.13126 3.9C2.24494 4.80227 1.74832 6.01648 1.74832 7.28125C1.74832 8.54603 2.24494 9.76024 3.13126 10.6625L10.5 18.125L17.8688 10.6625C18.7551 9.76024 19.2517 8.54603 19.2517 7.28125C19.2517 6.01648 18.7551 4.80227 17.8688 3.9C17.4332 3.45682 16.9138 3.10478 16.3408 2.86441C15.7678 2.62405 15.1526 2.50017 14.5313 2.5Z" fill="#006C4B"/>
</g>
</g>
<defs>
<clipPath id="clip0_34_1275">
<rect width="20" height="20" fill="white" transform="translate(0.5)"/>
</clipPath>
<clipPath id="clip1_34_1275">
<rect width="20" height="20" fill="white" transform="translate(0.5)"/>
</clipPath>
</defs>
</svg>
