<svg width="92" height="16" viewBox="0 0 92 16" fill="none" xmlns="http://www.w3.org/2000/svg">
<g clip-path="url(#clip0_264_1882)">
<g clip-path="url(#clip1_264_1882)">
<path d="M0.5 10.6707C0.5 7.39986 3.09401 5.40432 6.08748 5.38306C8.63711 5.36181 10.6763 6.70083 10.6763 8.3563C10.6763 8.90891 10.3212 9.46153 9.30041 9.41902C7.39435 9.31275 7.5275 6.297 5.59679 6.31825C4.33184 6.31825 3.53539 7.56989 3.53539 9.14271C3.53539 11.9672 5.04445 13.8139 7.30558 13.8139C8.65684 13.8139 9.50014 13.0913 9.96617 12.3285C10.2325 11.9884 10.7873 12.0734 10.7429 12.541C10.6097 14.2815 9.10314 16.0031 6.22063 16.0031C2.87209 16.0031 0.5 13.54 0.5 10.673V10.6707Z" fill="#5E5E5E"/>
<path d="M23.1163 15.2986C23.1163 15.7874 22.051 15.9149 20.9883 15.9149C19.7258 15.9149 19.1488 15.6811 19.0157 14.7672C18.5274 15.4686 17.5978 15.9999 16.0666 15.9999C13.6723 15.9999 11.8969 14.916 11.8969 12.7929C11.8747 10.6698 13.7364 9.56462 15.9112 9.56462C16.9321 9.56462 17.7507 9.81967 18.3277 10.2022L18.3055 9.9472C18.0392 7.4628 17.6841 6.27256 16.3329 6.27256C14.56 6.27256 15.0679 8.99075 13.406 8.99075C12.6071 8.99075 12.0745 8.52316 12.0745 7.80051C12.0745 6.27256 14.0249 5.37988 16.3304 5.37988C19.2129 5.37988 21.1634 7.05661 21.4741 9.73229L21.9623 13.6596C22.1398 15.1262 23.1163 14.7223 23.1163 15.2938V15.2986ZM18.6162 13.1542L18.5496 12.4103C18.4165 11.1587 17.7063 10.5211 16.7989 10.5211C15.8915 10.5211 15.1814 11.2225 15.1814 12.3041C15.1814 13.7682 15.9137 15.0648 17.043 15.0648C18.0639 15.0648 18.6828 14.1083 18.6162 13.1542Z" fill="#5E5E5E"/>
<path d="M32.7846 2.70705C32.7846 3.21715 32.3851 3.81227 31.5418 3.81227C29.1253 3.81227 30.521 1.13659 28.7925 1.11534C27.1971 1.11534 27.7272 3.96105 28.3042 5.59527H31.0092C31.2533 5.59527 31.453 5.78656 31.453 6.02036V6.42419C31.453 6.65799 31.2533 6.82802 31.0092 6.82802H28.393V13.7286C28.393 14.6425 29.5026 14.8126 29.5026 15.3416V15.4266C29.5026 15.6391 29.3251 15.7879 29.081 15.7879H24.7584C24.4699 15.7879 24.2924 15.6391 24.2924 15.4266V15.3416C24.2924 14.8102 25.1801 14.6402 25.1801 13.7286V6.82802H23.6069C23.3406 6.82802 23.1409 6.65799 23.1409 6.42419V6.02036C23.1409 5.78656 23.3406 5.59527 23.6069 5.59527H25.1801V4.25625C25.1801 2.00566 26.5338 0.222656 29.436 0.222656C31.2755 0.222656 32.7846 1.37039 32.7846 2.70705Z" fill="#5E5E5E"/>
<path d="M41.4099 12.7938C41.299 14.0242 39.9699 16.0008 36.9986 16.0008C33.7389 16.0008 31.4333 13.8352 31.4333 10.6069C31.4333 7.37865 33.872 5.40436 36.8655 5.38311C39.3485 5.36185 41.0992 6.48833 41.0992 8.35635C41.0992 9.8843 39.637 11.0745 37.551 11.4359C36.5745 11.6272 35.6227 11.6272 34.8238 11.5634C35.4008 12.9213 36.5301 13.7927 38.017 13.7927C39.3042 13.7927 40.2338 13.2189 40.6554 12.56C40.9217 12.2412 41.4543 12.3474 41.4099 12.7938ZM34.3824 9.20416C34.3824 9.67175 34.4268 10.1181 34.5156 10.5432C35.2035 10.5857 35.9778 10.5644 36.5548 10.4369C37.4869 10.2669 38.0836 9.69301 38.0836 8.22882C38.0614 7.20862 37.3956 6.36081 36.4438 6.36081C35.2011 6.36081 34.3824 7.56994 34.3824 9.20652V9.20416Z" fill="#5E5E5E"/>
<path d="M42.6526 15.4262V15.3412C42.6526 14.8098 43.4959 14.6398 43.4959 13.7282V8.92949C43.4959 7.9943 42.6526 7.76051 42.6526 7.29527V7.23151C42.6526 7.04022 42.8301 6.93395 43.1186 6.78517L45.8902 5.4674C46.445 5.21235 46.8 5.50991 46.8 5.89249V13.7282C46.8 14.6422 47.7321 14.8122 47.7321 15.3412V15.4262C47.7321 15.6388 47.5324 15.7875 47.2217 15.7875H43.1408C42.8523 15.7875 42.6526 15.6388 42.6526 15.4262ZM42.9633 2.21786C42.9633 1.15514 43.851 0.371094 45.1578 0.371094C46.4647 0.371094 47.308 1.1575 47.308 2.21786C47.308 3.27821 46.4647 4.08587 45.1578 4.08587C43.851 4.08587 42.9633 3.29946 42.9633 2.21786Z" fill="#5E5E5E"/>
<path d="M61.2991 15.3632V15.4483C61.2991 15.6608 61.0993 15.8096 60.7887 15.8096H56.9519C56.6412 15.8096 56.4415 15.6608 56.4415 15.4483V15.3632C56.4415 14.8319 57.2848 14.6618 57.2404 13.729L57.0185 9.79933C56.9075 7.52748 56.2639 6.59229 55.0902 6.59229C53.9165 6.59229 53.2063 7.54874 53.2063 8.92791V13.7479C53.2063 14.6618 54.1606 14.8319 54.1606 15.3609V15.4459C54.1606 15.6584 53.9609 15.8072 53.6502 15.8072H49.5249C49.2142 15.8072 49.0145 15.6584 49.0145 15.4459V15.3609C49.0145 14.8295 49.9688 14.6595 49.9688 13.7479V8.80038C49.9688 7.84394 48.8813 7.75892 48.8813 7.22992V7.14491C48.8813 6.93236 49.0589 6.82609 49.3252 6.69857L51.9636 5.46582C52.474 5.21077 52.7181 5.50833 52.7181 5.91216V7.1024C53.3173 6.01843 54.491 5.38316 56.0001 5.38316C58.0171 5.38316 59.97 6.53089 60.2338 9.9056L60.5002 13.729C60.5667 14.6642 61.2991 14.8342 61.2991 15.3632Z" fill="#5E5E5E"/>
<path d="M73.5169 15.2986C73.5169 15.7874 72.4517 15.9149 71.3889 15.9149C70.1264 15.9149 69.5495 15.6811 69.4163 14.7672C68.9281 15.4686 67.9985 15.9999 66.4672 15.9999C64.0729 15.9999 62.2976 14.916 62.2976 12.7929C62.2754 10.6698 64.137 9.56462 66.3119 9.56462C67.3327 9.56462 68.1514 9.81967 68.7283 10.2022L68.7061 9.9472C68.4398 7.4628 68.0848 6.27256 66.7335 6.27256C64.9606 6.27256 65.4686 8.99075 63.8066 8.99075C63.0077 8.99075 62.4751 8.52316 62.4751 7.80051C62.4751 6.27256 64.4255 5.37988 66.7311 5.37988C69.6136 5.37988 71.564 7.05661 71.8747 9.73229L72.3629 13.6596C72.5405 15.1262 73.5169 14.7223 73.5169 15.2938V15.2986ZM69.0168 13.1542L68.9503 12.4103C68.8171 11.1587 68.107 10.5211 67.1996 10.5211C66.2921 10.5211 65.582 11.2225 65.582 12.3041C65.582 13.7682 66.3143 15.0648 67.4437 15.0648C68.4645 15.0648 69.0834 14.1083 69.0168 13.1542Z" fill="#5E5E5E"/>
<path d="M83.0301 7.31431C83.0301 8.20699 82.675 8.99104 81.6122 8.99104C79.8837 8.99104 80.658 7.16553 79.4621 7.16553C78.5966 7.16553 78.2859 8.33452 78.2859 9.50115V13.7473C78.2859 14.64 79.3955 14.81 79.3955 15.339V15.424C79.3955 15.6578 79.1958 15.7853 78.9073 15.7853H74.8042C74.4935 15.7853 74.2938 15.6578 74.2938 15.424V15.339C74.2938 14.8076 75.1593 14.6376 75.1593 13.7473V8.7785C75.1593 7.84331 74.1384 7.77955 74.1384 7.25055V7.16553C74.1384 6.95299 74.316 6.78296 74.6045 6.65543L77.265 5.46519C77.7755 5.23139 77.9752 5.48644 77.9752 5.89028V7.48199C78.4634 6.12407 79.504 5.38017 80.9909 5.38017C82.3002 5.38017 83.0301 6.23034 83.0301 7.31195V7.31431Z" fill="#5E5E5E"/>
<path d="M84.7364 12.3263V6.82611H83.6934C83.4271 6.82611 83.2495 6.65608 83.2495 6.40103V6.0397C83.2495 5.7634 83.4049 5.59336 83.6934 5.59336H84.2482C85.4909 5.59336 86.3539 4.74319 86.5981 3.49155C86.6646 3.17273 86.8644 2.98145 87.1085 2.98145H87.5523C87.863 2.98145 88.0405 3.17273 88.0405 3.49155L88.0627 5.59336H90.6124C90.8565 5.59336 91.0562 5.78465 91.0562 6.0397V6.40103C91.0562 6.65608 90.8565 6.82611 90.6124 6.82611H88.0627V12.3688C88.0627 13.2189 88.551 13.7267 89.1945 13.7267C90.0822 13.7267 90.5236 13.2591 90.7011 12.7702C90.9674 12.4089 91.5 12.4939 91.5 12.8978C91.5 14.4257 90.3017 15.9985 88.0849 15.9985C86.0679 15.9985 84.7364 14.7445 84.7364 12.3239V12.3263Z" fill="#5E5E5E"/>
</g>
</g>
<defs>
<clipPath id="clip0_264_1882">
<rect width="91" height="16" fill="white" transform="translate(0.5)"/>
</clipPath>
<clipPath id="clip1_264_1882">
<rect width="91" height="15.7778" fill="white" transform="translate(0.5 0.222656)"/>
</clipPath>
</defs>
</svg>
