<svg width="92" height="16" viewBox="0 0 92 16" fill="none" xmlns="http://www.w3.org/2000/svg">
<g clip-path="url(#clip0_153_12300)">
<g clip-path="url(#clip1_153_12300)">
<path d="M0.5 10.6699C0.5 7.39913 3.09401 5.40358 6.08748 5.38233C8.63711 5.36108 10.6763 6.7001 10.6763 8.35557C10.6763 8.90818 10.3212 9.46079 9.30041 9.41829C7.39435 9.31201 7.5275 6.29626 5.59679 6.31752C4.33184 6.31752 3.53539 7.56916 3.53539 9.14198C3.53539 11.9664 5.04445 13.8132 7.30558 13.8132C8.65684 13.8132 9.50014 13.0906 9.96617 12.3278C10.2325 11.9877 10.7873 12.0727 10.7429 12.5403C10.6097 14.2808 9.10314 16.0024 6.22063 16.0024C2.87209 16.0024 0.5 13.5393 0.5 10.6723V10.6699Z" fill="white"/>
<path d="M23.1163 15.2986C23.1163 15.7875 22.051 15.915 20.9883 15.915C19.7258 15.915 19.1488 15.6812 19.0157 14.7673C18.5274 15.4687 17.5978 16 16.0666 16C13.6723 16 11.8969 14.916 11.8969 12.793C11.8747 10.6699 13.7364 9.56468 15.9112 9.56468C16.9321 9.56468 17.7507 9.81973 18.3277 10.2023L18.3055 9.94726C18.0392 7.46287 17.6841 6.27262 16.3329 6.27262C14.56 6.27262 15.0679 8.99081 13.406 8.99081C12.6071 8.99081 12.0745 8.52322 12.0745 7.80057C12.0745 6.27262 14.0249 5.37994 16.3304 5.37994C19.2129 5.37994 21.1634 7.05667 21.4741 9.73235L21.9623 13.6597C22.1398 15.1262 23.1163 14.7224 23.1163 15.2939V15.2986ZM18.6162 13.1543L18.5496 12.4104C18.4165 11.1588 17.7063 10.5211 16.7989 10.5211C15.8915 10.5211 15.1814 11.2225 15.1814 12.3041C15.1814 13.7683 15.9137 15.0648 17.043 15.0648C18.0639 15.0648 18.6828 14.1084 18.6162 13.1543Z" fill="white"/>
<path d="M32.7846 2.70662C32.7846 3.21672 32.3851 3.81184 31.5418 3.81184C29.1253 3.81184 30.521 1.13616 28.7925 1.11491C27.1971 1.11491 27.7272 3.96062 28.3042 5.59484H31.0092C31.2533 5.59484 31.453 5.78613 31.453 6.01993V6.42376C31.453 6.65756 31.2533 6.82759 31.0092 6.82759H28.393V13.7282C28.393 14.6421 29.5026 14.8121 29.5026 15.3411V15.4261C29.5026 15.6387 29.3251 15.7875 29.081 15.7875H24.7584C24.4699 15.7875 24.2924 15.6387 24.2924 15.4261V15.3411C24.2924 14.8098 25.1801 14.6397 25.1801 13.7282V6.82759H23.6069C23.3406 6.82759 23.1409 6.65756 23.1409 6.42376V6.01993C23.1409 5.78613 23.3406 5.59484 23.6069 5.59484H25.1801V4.25582C25.1801 2.00523 26.5338 0.222229 29.436 0.222229C31.2755 0.222229 32.7846 1.36996 32.7846 2.70662Z" fill="white"/>
<path d="M41.4099 12.793C41.299 14.0234 39.9699 16 36.9986 16C33.7389 16 31.4333 13.8344 31.4333 10.6062C31.4333 7.37786 33.872 5.40357 36.8655 5.38231C39.3485 5.36106 41.0992 6.48754 41.0992 8.35556C41.0992 9.8835 39.637 11.0737 37.551 11.4351C36.5745 11.6264 35.6227 11.6264 34.8238 11.5626C35.4008 12.9205 36.5301 13.7919 38.017 13.7919C39.3042 13.7919 40.2338 13.2181 40.6554 12.5592C40.9217 12.2404 41.4543 12.3466 41.4099 12.793ZM34.3824 9.20337C34.3824 9.67096 34.4268 10.1173 34.5156 10.5424C35.2035 10.5849 35.9778 10.5636 36.5548 10.4361C37.4869 10.2661 38.0836 9.69222 38.0836 8.22803C38.0614 7.20782 37.3956 6.36001 36.4438 6.36001C35.2011 6.36001 34.3824 7.56915 34.3824 9.20573V9.20337Z" fill="white"/>
<path d="M42.6526 15.4262V15.3411C42.6526 14.8098 43.4959 14.6398 43.4959 13.7282V8.92943C43.4959 7.99424 42.6526 7.76045 42.6526 7.29521V7.23145C42.6526 7.04016 42.8301 6.93389 43.1186 6.78511L45.8902 5.46734C46.445 5.21229 46.8 5.50985 46.8 5.89243V13.7282C46.8 14.6421 47.7321 14.8122 47.7321 15.3411V15.4262C47.7321 15.6387 47.5324 15.7875 47.2217 15.7875H43.1408C42.8523 15.7875 42.6526 15.6387 42.6526 15.4262ZM42.9633 2.2178C42.9633 1.15508 43.851 0.371033 45.1578 0.371033C46.4647 0.371033 47.308 1.15744 47.308 2.2178C47.308 3.27815 46.4647 4.08581 45.1578 4.08581C43.851 4.08581 42.9633 3.2994 42.9633 2.2178Z" fill="white"/>
<path d="M61.2991 15.3624V15.4474C61.2991 15.6599 61.0993 15.8087 60.7887 15.8087H56.9519C56.6412 15.8087 56.4415 15.6599 56.4415 15.4474V15.3624C56.4415 14.831 57.2848 14.661 57.2404 13.7282L57.0185 9.79848C56.9075 7.52663 56.2639 6.59144 55.0902 6.59144C53.9165 6.59144 53.2063 7.54788 53.2063 8.92705V13.7471C53.2063 14.661 54.1606 14.831 54.1606 15.36V15.445C54.1606 15.6576 53.9609 15.8064 53.6502 15.8064H49.5249C49.2142 15.8064 49.0145 15.6576 49.0145 15.445V15.36C49.0145 14.8287 49.9688 14.6586 49.9688 13.7471V8.79953C49.9688 7.84308 48.8813 7.75807 48.8813 7.22907V7.14405C48.8813 6.93151 49.0589 6.82524 49.3252 6.69771L51.9636 5.46496C52.474 5.20991 52.7181 5.50747 52.7181 5.9113V7.10154C53.3173 6.01757 54.491 5.38231 56.0001 5.38231C58.0171 5.38231 59.97 6.53004 60.2338 9.90475L60.5002 13.7282C60.5667 14.6634 61.2991 14.8334 61.2991 15.3624Z" fill="white"/>
<path d="M73.5169 15.2986C73.5169 15.7875 72.4517 15.915 71.3889 15.915C70.1264 15.915 69.5495 15.6812 69.4163 14.7673C68.9281 15.4687 67.9985 16 66.4672 16C64.0729 16 62.2976 14.916 62.2976 12.793C62.2754 10.6699 64.137 9.56468 66.3119 9.56468C67.3327 9.56468 68.1514 9.81973 68.7283 10.2023L68.7061 9.94726C68.4398 7.46287 68.0848 6.27262 66.7335 6.27262C64.9606 6.27262 65.4686 8.99081 63.8066 8.99081C63.0077 8.99081 62.4751 8.52322 62.4751 7.80057C62.4751 6.27262 64.4255 5.37994 66.7311 5.37994C69.6136 5.37994 71.564 7.05667 71.8747 9.73235L72.3629 13.6597C72.5405 15.1262 73.5169 14.7224 73.5169 15.2939V15.2986ZM69.0168 13.1543L68.9503 12.4104C68.8171 11.1588 68.107 10.5211 67.1996 10.5211C66.2921 10.5211 65.582 11.2225 65.582 12.3041C65.582 13.7683 66.3143 15.0648 67.4437 15.0648C68.4645 15.0648 69.0834 14.1084 69.0168 13.1543Z" fill="white"/>
<path d="M83.0301 7.31407C83.0301 8.20675 82.675 8.9908 81.6122 8.9908C79.8837 8.9908 80.658 7.16529 79.4621 7.16529C78.5966 7.16529 78.2859 8.33428 78.2859 9.5009V13.747C78.2859 14.6397 79.3955 14.8098 79.3955 15.3387V15.4238C79.3955 15.6576 79.1958 15.7851 78.9073 15.7851H74.8042C74.4935 15.7851 74.2938 15.6576 74.2938 15.4238V15.3387C74.2938 14.8074 75.1593 14.6374 75.1593 13.747V8.77825C75.1593 7.84307 74.1384 7.7793 74.1384 7.25031V7.16529C74.1384 6.95275 74.316 6.78271 74.6045 6.65519L77.265 5.46495C77.7755 5.23115 77.9752 5.4862 77.9752 5.89003V7.48174C78.4634 6.12383 79.504 5.37993 80.9909 5.37993C82.3002 5.37993 83.0301 6.2301 83.0301 7.31171V7.31407Z" fill="white"/>
<path d="M84.7364 12.3254V6.82526H83.6934C83.4271 6.82526 83.2495 6.65522 83.2495 6.40017V6.03885C83.2495 5.76254 83.4049 5.59251 83.6934 5.59251H84.2482C85.4909 5.59251 86.3539 4.74234 86.5981 3.49069C86.6646 3.17188 86.8644 2.98059 87.1085 2.98059H87.5523C87.863 2.98059 88.0405 3.17188 88.0405 3.49069L88.0627 5.59251H90.6124C90.8565 5.59251 91.0562 5.7838 91.0562 6.03885V6.40017C91.0562 6.65522 90.8565 6.82526 90.6124 6.82526H88.0627V12.3679C88.0627 13.2181 88.551 13.7258 89.1945 13.7258C90.0822 13.7258 90.5236 13.2582 90.7011 12.7694C90.9674 12.4081 91.5 12.4931 91.5 12.8969C91.5 14.4249 90.3017 15.9977 88.0849 15.9977C86.0679 15.9977 84.7364 14.7437 84.7364 12.323V12.3254Z" fill="white"/>
</g>
</g>
<defs>
<clipPath id="clip0_153_12300">
<rect width="91" height="16" fill="white" transform="translate(0.5)"/>
</clipPath>
<clipPath id="clip1_153_12300">
<rect width="91" height="15.7778" fill="white" transform="translate(0.5 0.222229)"/>
</clipPath>
</defs>
</svg>
