<svg width="13" height="12" viewBox="0 0 13 12" fill="none" xmlns="http://www.w3.org/2000/svg">
<g clip-path="url(#clip0_266_4359)">
<path d="M6.5 0.75C5.46165 0.75 4.44662 1.05791 3.58326 1.63478C2.7199 2.21166 2.04699 3.0316 1.64963 3.99091C1.25227 4.95022 1.14831 6.00582 1.35088 7.02422C1.55345 8.04262 2.05347 8.97808 2.78769 9.71231C3.52192 10.4465 4.45738 10.9466 5.47578 11.1491C6.49418 11.3517 7.54978 11.2477 8.50909 10.8504C9.4684 10.453 10.2883 9.7801 10.8652 8.91674C11.4421 8.05339 11.75 7.03835 11.75 6C11.75 4.60761 11.1969 3.27226 10.2123 2.28769C9.22775 1.30312 7.89239 0.75 6.5 0.75ZM6.5 10.5C5.60999 10.5 4.73996 10.2361 3.99994 9.74161C3.25992 9.24715 2.68314 8.54434 2.34254 7.72208C2.00195 6.89981 1.91284 5.99501 2.08647 5.12209C2.2601 4.24918 2.68869 3.44736 3.31802 2.81802C3.94736 2.18868 4.74918 1.7601 5.6221 1.58647C6.49501 1.41283 7.39981 1.50195 8.22208 1.84254C9.04435 2.18314 9.74715 2.75991 10.2416 3.49993C10.7361 4.23996 11 5.10998 11 6C11 7.19347 10.5259 8.33807 9.68198 9.18198C8.83807 10.0259 7.69348 10.5 6.5 10.5Z" fill="#5E5E5E"/>
<path d="M6.5 9.375C6.81066 9.375 7.0625 9.12316 7.0625 8.8125C7.0625 8.50184 6.81066 8.25 6.5 8.25C6.18934 8.25 5.9375 8.50184 5.9375 8.8125C5.9375 9.12316 6.18934 9.375 6.5 9.375Z" fill="#5E5E5E"/>
<path d="M6.875 3H6.3125C6.09076 2.99951 5.8711 3.04282 5.66614 3.12745C5.46118 3.21208 5.27496 3.33636 5.11816 3.49316C4.96136 3.64996 4.83708 3.83618 4.75245 4.04114C4.66782 4.2461 4.62451 4.46576 4.625 4.6875V4.875H5.375V4.6875C5.375 4.43886 5.47378 4.20041 5.64959 4.02459C5.82541 3.84878 6.06386 3.75 6.3125 3.75H6.875C7.12364 3.75 7.3621 3.84878 7.53792 4.02459C7.71373 4.20041 7.8125 4.43886 7.8125 4.6875C7.8125 4.93614 7.71373 5.1746 7.53792 5.35042C7.3621 5.52623 7.12364 5.625 6.875 5.625H6.125V7.3125H6.875V6.375C7.32256 6.375 7.75178 6.19721 8.06825 5.88075C8.38471 5.56428 8.5625 5.13506 8.5625 4.6875C8.5625 4.23995 8.38471 3.81073 8.06825 3.49426C7.75178 3.17779 7.32256 3 6.875 3Z" fill="#5E5E5E"/>
</g>
<defs>
<clipPath id="clip0_266_4359">
<rect width="12" height="12" fill="white" transform="translate(0.5)"/>
</clipPath>
</defs>
</svg>
