<svg width="390" height="72" viewBox="0 0 390 72" fill="none" xmlns="http://www.w3.org/2000/svg">
<g clip-path="url(#clip0_153_12332)">
<path d="M0 48.0145C0 33.2959 11.1172 24.316 23.9463 24.2203C34.8733 24.1247 43.6128 30.1503 43.6128 37.5999C43.6128 40.0867 42.091 42.5734 37.716 42.3821C29.5472 41.9039 30.1179 28.333 21.8434 28.4287C16.4222 28.4287 13.0088 34.0611 13.0088 41.1388C13.0088 53.8488 19.4762 62.1593 29.1668 62.1593C34.9579 62.1593 38.572 58.9074 40.5693 55.4748C41.7106 53.9445 44.0883 54.3271 43.8981 56.4312C43.3275 64.2634 36.8706 72.0106 24.517 72.0106C10.1661 72.0106 0 60.9265 0 48.0251V48.0145Z" fill="black"/>
<path d="M96.9267 68.8437C96.9267 71.0436 92.3615 71.6174 87.8068 71.6174C82.3962 71.6174 79.9233 70.5653 79.3527 66.4526C77.2603 69.6089 73.2763 72 66.7137 72C56.4525 72 48.8438 67.1221 48.8438 57.5683C48.7487 48.0145 56.7273 43.041 66.048 43.041C70.423 43.041 73.9315 44.1887 76.4043 45.9103L76.3092 44.7626C75.1679 33.5828 73.6461 28.2268 67.855 28.2268C60.2569 28.2268 62.4338 40.4586 55.3112 40.4586C51.8873 40.4586 49.6047 38.3544 49.6047 35.1025C49.6047 28.2268 57.9637 24.2097 67.8445 24.2097C80.1981 24.2097 88.5571 31.755 89.8886 43.7955L91.981 61.4685C92.7419 68.068 96.9267 66.2507 96.9267 68.8225V68.8437ZM77.6407 59.1943L77.3554 55.8467C76.7847 50.2143 73.7412 47.345 69.8523 47.345C65.9634 47.345 62.9199 50.5013 62.9199 55.3685C62.9199 61.9573 66.0585 67.7916 70.8985 67.7916C75.2735 67.7916 77.926 63.4876 77.6407 59.1943Z" fill="black"/>
<path d="M138.363 12.1798C138.363 14.4752 136.651 17.1533 133.036 17.1533C122.68 17.1533 128.661 5.11271 121.253 5.01706C114.416 5.01706 116.688 17.8228 119.161 25.1768H130.754C131.8 25.1768 132.656 26.0376 132.656 27.0897V28.9069C132.656 29.959 131.8 30.7241 130.754 30.7241H119.542V61.7767C119.542 65.8894 124.297 66.6545 124.297 69.035V69.4176C124.297 70.374 123.536 71.0436 122.49 71.0436H103.965C102.728 71.0436 101.967 70.374 101.967 69.4176V69.035C101.967 66.6439 105.772 65.8788 105.772 61.7767V30.7241H99.0297C97.8884 30.7241 97.0324 29.959 97.0324 28.9069V27.0897C97.0324 26.0376 97.8884 25.1768 99.0297 25.1768H105.772V19.1512C105.772 9.0235 111.573 1 124.012 1C131.895 1 138.363 6.1648 138.363 12.1798Z" fill="black"/>
<path d="M175.328 57.5683C174.853 63.1051 169.157 72 156.423 72C142.452 72 132.571 62.2549 132.571 47.7276C132.571 33.2003 143.023 24.316 155.852 24.2203C166.494 24.1247 173.997 29.1938 173.997 37.5999C173.997 44.4757 167.73 49.8318 158.79 51.4577C154.605 52.3185 150.526 52.3185 147.102 52.0316C149.575 58.1422 154.415 62.0636 160.787 62.0636C166.303 62.0636 170.288 59.4812 172.095 56.5162C173.236 55.0816 175.519 55.5598 175.328 57.5683ZM145.21 41.4151C145.21 43.5192 145.401 45.5278 145.781 47.4407C148.729 47.6319 152.048 47.5363 154.521 46.9624C158.515 46.1973 161.072 43.6149 161.072 37.026C160.977 32.4351 158.124 28.62 154.045 28.62C148.719 28.62 145.21 34.0611 145.21 41.4257V41.4151Z" fill="black"/>
<path d="M180.654 69.4176V69.035C180.654 66.6439 184.269 65.8788 184.269 61.7767V40.1823C184.269 35.974 180.654 34.9219 180.654 32.8283V32.5414C180.654 31.6806 181.415 31.2024 182.652 30.5329L194.53 24.6029C196.907 23.4552 198.429 24.7942 198.429 26.5158V61.7767C198.429 65.8894 202.424 66.6545 202.424 69.035V69.4176C202.424 70.374 201.568 71.0436 200.236 71.0436H182.747C181.51 71.0436 180.654 70.374 180.654 69.4176ZM181.986 9.97994C181.986 5.19772 185.79 1.66951 191.391 1.66951C196.992 1.66951 200.606 5.20835 200.606 9.97994C200.606 14.7515 196.992 18.386 191.391 18.386C185.79 18.386 181.986 14.8472 181.986 9.97994Z" fill="black"/>
<path d="M260.567 69.1307V69.5132C260.567 70.4697 259.711 71.1392 258.38 71.1392H241.936C240.605 71.1392 239.749 70.4697 239.749 69.5132V69.1307C239.749 66.7396 243.363 65.9744 243.173 61.7767L242.222 44.0931C241.746 33.8698 238.988 29.6614 233.958 29.6614C228.928 29.6614 225.884 33.9654 225.884 40.1717V61.8617C225.884 65.9744 229.974 66.7396 229.974 69.12V69.5026C229.974 70.4591 229.118 71.1286 227.786 71.1286H210.106C208.775 71.1286 207.919 70.4591 207.919 69.5026V69.12C207.919 66.7289 212.009 65.9638 212.009 61.8617V39.5978C212.009 35.2938 207.348 34.9112 207.348 32.5308V32.1482C207.348 31.1917 208.109 30.7135 209.25 30.1397L220.558 24.5923C222.745 23.4445 223.792 24.7836 223.792 26.6008V31.9569C226.36 27.079 231.39 24.2203 237.857 24.2203C246.502 24.2203 254.871 29.3851 256.002 44.5713L257.143 61.7767C257.429 65.985 260.567 66.7502 260.567 69.1307Z" fill="black"/>
<path d="M312.93 68.8437C312.93 71.0436 308.365 71.6174 303.81 71.6174C298.399 71.6174 295.927 70.5653 295.356 66.4526C293.264 69.6089 289.28 72 282.717 72C272.456 72 264.847 67.1221 264.847 57.5683C264.752 48.0145 272.731 43.041 282.051 43.041C286.426 43.041 289.935 44.1887 292.408 45.9103L292.312 44.7626C291.171 33.5828 289.649 28.2268 283.858 28.2268C276.26 28.2268 278.437 40.4586 271.314 40.4586C267.891 40.4586 265.608 38.3544 265.608 35.1025C265.608 28.2268 273.967 24.2097 283.848 24.2097C296.201 24.2097 304.56 31.755 305.892 43.7955L307.984 61.4685C308.745 68.068 312.93 66.2507 312.93 68.8225V68.8437ZM293.644 59.1943L293.359 55.8467C292.788 50.2143 289.744 47.345 285.856 47.345C281.967 47.345 278.923 50.5013 278.923 55.3685C278.923 61.9573 282.062 67.7916 286.902 67.7916C291.277 67.7916 293.929 63.4876 293.644 59.1943Z" fill="black"/>
<path d="M353.7 32.9133C353.7 36.9304 352.178 40.4586 347.624 40.4586C340.216 40.4586 343.534 32.2438 338.409 32.2438C334.699 32.2438 333.368 37.5043 333.368 42.7541V61.8617C333.368 65.8788 338.123 66.6439 338.123 69.0244V69.407C338.123 70.4591 337.267 71.0329 336.031 71.0329H318.446C317.115 71.0329 316.259 70.4591 316.259 69.407V69.0244C316.259 66.6333 319.968 65.8681 319.968 61.8617V39.5022C319.968 35.2938 315.593 35.0069 315.593 32.6264V32.2438C315.593 31.2874 316.354 30.5222 317.59 29.9484L328.993 24.5923C331.18 23.5402 332.036 24.6879 332.036 26.5052V33.6679C334.129 27.5573 338.588 24.2097 344.961 24.2097C350.572 24.2097 353.7 28.0355 353.7 32.9027V32.9133Z" fill="black"/>
<path d="M361.013 55.4642V30.7135H356.543C355.401 30.7135 354.641 29.9484 354.641 28.8006V27.1747C354.641 25.9313 355.306 25.1661 356.543 25.1661H358.92C364.247 25.1661 367.945 21.3404 368.991 15.708C369.277 14.2733 370.133 13.4125 371.179 13.4125H373.081C374.413 13.4125 375.174 14.2733 375.174 15.708L375.269 25.1661H386.196C387.242 25.1661 388.098 26.0269 388.098 27.1747V28.8006C388.098 29.9484 387.242 30.7135 386.196 30.7135H375.269V55.6554C375.269 59.4812 377.361 61.7661 380.119 61.7661C383.924 61.7661 385.815 59.6619 386.576 57.4621C387.717 55.8361 390 56.2187 390 58.0359C390 64.9117 384.864 71.9894 375.364 71.9894C366.719 71.9894 361.013 66.3464 361.013 55.4535V55.4642Z" fill="black"/>
</g>
<defs>
<clipPath id="clip0_153_12332">
<rect width="390" height="71" fill="white" transform="translate(0 1)"/>
</clipPath>
</defs>
</svg>
